<mxfile host="65bd71144e">
    <diagram name="Page-1" id="HtDMB8GBCXyzhwlQVmr2">
        <mxGraphModel dx="792" dy="580" grid="0" gridSize="10" guides="1" tooltips="1" connect="1" arrows="1" fold="1" page="1" pageScale="1" pageWidth="850" pageHeight="1100" math="1" shadow="0">
            <root>
                <mxCell id="0"/>
                <mxCell id="1" parent="0"/>
                <mxCell id="dFCPVr-EJcx0k2NFLM8W-7" value="&lt;span style=&quot;font-size: 25px; text-wrap: wrap;&quot;&gt;\(x_1\)&lt;/span&gt;" style="text;html=1;align=center;verticalAlign=middle;resizable=0;points=[];autosize=1;strokeColor=none;fillColor=none;" parent="1" vertex="1">
                    <mxGeometry x="135" y="323" width="90" height="40" as="geometry"/>
                </mxCell>
                <mxCell id="dFCPVr-EJcx0k2NFLM8W-8" value="&lt;span style=&quot;font-size: 25px; text-wrap: wrap;&quot;&gt;\(x_2\)&lt;/span&gt;" style="text;html=1;align=center;verticalAlign=middle;resizable=0;points=[];autosize=1;strokeColor=none;fillColor=none;" parent="1" vertex="1">
                    <mxGeometry x="136" y="369" width="89" height="42" as="geometry"/>
                </mxCell>
                <mxCell id="dFCPVr-EJcx0k2NFLM8W-9" value="&lt;span style=&quot;font-size: 25px; text-wrap: wrap;&quot;&gt;\(x_n\)&lt;/span&gt;" style="text;html=1;align=center;verticalAlign=middle;resizable=0;points=[];autosize=1;strokeColor=none;fillColor=none;" parent="1" vertex="1">
                    <mxGeometry x="136" y="463" width="89" height="42" as="geometry"/>
                </mxCell>
                <mxCell id="dFCPVr-EJcx0k2NFLM8W-11" value="&lt;span style=&quot;font-size: 25px; text-wrap: wrap;&quot;&gt;\(\vdots\)&lt;/span&gt;" style="text;html=1;align=center;verticalAlign=middle;resizable=0;points=[];autosize=1;strokeColor=none;fillColor=none;" parent="1" vertex="1">
                    <mxGeometry x="123" y="416" width="115" height="42" as="geometry"/>
                </mxCell>
                <mxCell id="yKUEbNG_Zo-8lnRa12x--1" value="&lt;font style=&quot;font-size: 25px;&quot;&gt;\(\Sigma\)&lt;/font&gt;" style="ellipse;whiteSpace=wrap;html=1;aspect=fixed;" parent="1" vertex="1">
                    <mxGeometry x="347" y="352" width="80" height="80" as="geometry"/>
                </mxCell>
                <mxCell id="yKUEbNG_Zo-8lnRa12x--7" style="rounded=0;orthogonalLoop=1;jettySize=auto;html=1;entryX=0;entryY=0.5;entryDx=0;entryDy=0;endArrow=none;endFill=0;exitX=1.006;exitY=0.702;exitDx=0;exitDy=0;exitPerimeter=0;startArrow=oval;startFill=0;" parent="1" source="dFCPVr-EJcx0k2NFLM8W-7" target="yKUEbNG_Zo-8lnRa12x--1" edge="1">
                    <mxGeometry relative="1" as="geometry">
                        <mxPoint x="350" y="300" as="sourcePoint"/>
                        <mxPoint x="467" y="300" as="targetPoint"/>
                    </mxGeometry>
                </mxCell>
                <mxCell id="yKUEbNG_Zo-8lnRa12x--8" value="&lt;font style=&quot;font-size: 20px;&quot;&gt;\(w_1\)&lt;/font&gt;" style="edgeLabel;html=1;align=center;verticalAlign=middle;resizable=0;points=[];labelBackgroundColor=none;" parent="yKUEbNG_Zo-8lnRa12x--7" vertex="1" connectable="0">
                    <mxGeometry x="-0.0066" relative="1" as="geometry">
                        <mxPoint x="-32" y="-28" as="offset"/>
                    </mxGeometry>
                </mxCell>
                <mxCell id="yKUEbNG_Zo-8lnRa12x--9" style="rounded=0;orthogonalLoop=1;jettySize=auto;html=1;entryX=0;entryY=0.5;entryDx=0;entryDy=0;endArrow=none;endFill=0;exitX=1.013;exitY=0.547;exitDx=0;exitDy=0;exitPerimeter=0;startArrow=oval;startFill=0;" parent="1" source="dFCPVr-EJcx0k2NFLM8W-8" target="yKUEbNG_Zo-8lnRa12x--1" edge="1">
                    <mxGeometry relative="1" as="geometry">
                        <mxPoint x="235" y="383" as="sourcePoint"/>
                        <mxPoint x="326" y="434" as="targetPoint"/>
                    </mxGeometry>
                </mxCell>
                <mxCell id="yKUEbNG_Zo-8lnRa12x--10" value="&lt;font style=&quot;font-size: 20px;&quot;&gt;\(w_2\)&lt;/font&gt;" style="edgeLabel;html=1;align=center;verticalAlign=middle;resizable=0;points=[];labelBackgroundColor=none;" parent="yKUEbNG_Zo-8lnRa12x--9" vertex="1" connectable="0">
                    <mxGeometry x="-0.0066" relative="1" as="geometry">
                        <mxPoint x="-40" y="14" as="offset"/>
                    </mxGeometry>
                </mxCell>
                <mxCell id="yKUEbNG_Zo-8lnRa12x--11" style="rounded=0;orthogonalLoop=1;jettySize=auto;html=1;entryX=0;entryY=0.5;entryDx=0;entryDy=0;endArrow=none;endFill=0;exitX=1.01;exitY=0.493;exitDx=0;exitDy=0;exitPerimeter=0;startArrow=oval;startFill=0;" parent="1" source="dFCPVr-EJcx0k2NFLM8W-9" target="yKUEbNG_Zo-8lnRa12x--1" edge="1">
                    <mxGeometry relative="1" as="geometry">
                        <mxPoint x="241" y="453" as="sourcePoint"/>
                        <mxPoint x="358" y="453" as="targetPoint"/>
                    </mxGeometry>
                </mxCell>
                <mxCell id="yKUEbNG_Zo-8lnRa12x--12" value="&lt;font style=&quot;font-size: 20px;&quot;&gt;\(w_n\)&lt;/font&gt;" style="edgeLabel;html=1;align=center;verticalAlign=middle;resizable=0;points=[];labelBackgroundColor=none;" parent="yKUEbNG_Zo-8lnRa12x--11" vertex="1" connectable="0">
                    <mxGeometry x="-0.0066" relative="1" as="geometry">
                        <mxPoint x="-22" y="35" as="offset"/>
                    </mxGeometry>
                </mxCell>
                <mxCell id="yKUEbNG_Zo-8lnRa12x--13" value="&lt;font style=&quot;font-size: 25px;&quot;&gt;\(g\)&lt;/font&gt;" style="ellipse;whiteSpace=wrap;html=1;aspect=fixed;" parent="1" vertex="1">
                    <mxGeometry x="458" y="352" width="80" height="80" as="geometry"/>
                </mxCell>
                <mxCell id="yKUEbNG_Zo-8lnRa12x--15" style="rounded=0;orthogonalLoop=1;jettySize=auto;html=1;entryX=0;entryY=0.5;entryDx=0;entryDy=0;endArrow=none;endFill=0;exitX=1;exitY=0.5;exitDx=0;exitDy=0;" parent="1" source="yKUEbNG_Zo-8lnRa12x--1" target="yKUEbNG_Zo-8lnRa12x--13" edge="1">
                    <mxGeometry relative="1" as="geometry">
                        <mxPoint x="435" y="331" as="sourcePoint"/>
                        <mxPoint x="552" y="331" as="targetPoint"/>
                    </mxGeometry>
                </mxCell>
                <mxCell id="yKUEbNG_Zo-8lnRa12x--18" value="&lt;span style=&quot;font-size: 25px; text-wrap: wrap;&quot;&gt;\(y\)&lt;/span&gt;" style="text;html=1;align=center;verticalAlign=middle;resizable=0;points=[];autosize=1;strokeColor=none;fillColor=none;" parent="1" vertex="1">
                    <mxGeometry x="584" y="371" width="61" height="42" as="geometry"/>
                </mxCell>
                <mxCell id="yKUEbNG_Zo-8lnRa12x--19" style="rounded=0;orthogonalLoop=1;jettySize=auto;html=1;entryX=0.017;entryY=0.5;entryDx=0;entryDy=0;endArrow=classic;endFill=1;exitX=1;exitY=0.5;exitDx=0;exitDy=0;entryPerimeter=0;sourcePerimeterSpacing=0;strokeWidth=1;" parent="1" source="yKUEbNG_Zo-8lnRa12x--13" target="yKUEbNG_Zo-8lnRa12x--18" edge="1">
                    <mxGeometry relative="1" as="geometry">
                        <mxPoint x="564" y="386" as="sourcePoint"/>
                        <mxPoint x="621" y="386" as="targetPoint"/>
                    </mxGeometry>
                </mxCell>
                <mxCell id="2" value="&lt;span style=&quot;font-size: 25px; text-wrap: wrap;&quot;&gt;\(x_1\)&lt;/span&gt;" style="text;html=1;align=center;verticalAlign=middle;resizable=0;points=[];autosize=1;strokeColor=none;fillColor=none;" vertex="1" parent="1">
                    <mxGeometry x="143" y="609" width="90" height="40" as="geometry"/>
                </mxCell>
                <mxCell id="3" value="&lt;span style=&quot;font-size: 25px; text-wrap: wrap;&quot;&gt;\(x_2\)&lt;/span&gt;" style="text;html=1;align=center;verticalAlign=middle;resizable=0;points=[];autosize=1;strokeColor=none;fillColor=none;" vertex="1" parent="1">
                    <mxGeometry x="144" y="655" width="89" height="42" as="geometry"/>
                </mxCell>
                <mxCell id="4" value="&lt;span style=&quot;font-size: 25px; text-wrap: wrap;&quot;&gt;\(x_n\)&lt;/span&gt;" style="text;html=1;align=center;verticalAlign=middle;resizable=0;points=[];autosize=1;strokeColor=none;fillColor=none;" vertex="1" parent="1">
                    <mxGeometry x="144" y="749" width="89" height="42" as="geometry"/>
                </mxCell>
                <mxCell id="5" value="&lt;span style=&quot;font-size: 25px; text-wrap: wrap;&quot;&gt;\(\vdots\)&lt;/span&gt;" style="text;html=1;align=center;verticalAlign=middle;resizable=0;points=[];autosize=1;strokeColor=none;fillColor=none;" vertex="1" parent="1">
                    <mxGeometry x="131" y="702" width="115" height="42" as="geometry"/>
                </mxCell>
                <mxCell id="6" value="&lt;font style=&quot;font-size: 25px;&quot;&gt;\(a^{(1)}_{1}\)&lt;/font&gt;" style="ellipse;whiteSpace=wrap;html=1;aspect=fixed;" vertex="1" parent="1">
                    <mxGeometry x="383" y="593" width="80" height="80" as="geometry"/>
                </mxCell>
                <mxCell id="7" value="&lt;span style=&quot;font-size: 25px;&quot;&gt;\(a^{(1)}_{2}\)&lt;/span&gt;" style="ellipse;whiteSpace=wrap;html=1;aspect=fixed;" vertex="1" parent="1">
                    <mxGeometry x="383" y="732" width="80" height="80" as="geometry"/>
                </mxCell>
                <mxCell id="8" value="&lt;span style=&quot;font-size: 25px;&quot;&gt;\(a^{(2)}_{1}\)&lt;/span&gt;" style="ellipse;whiteSpace=wrap;html=1;aspect=fixed;" vertex="1" parent="1">
                    <mxGeometry x="519" y="593" width="80" height="80" as="geometry"/>
                </mxCell>
                <mxCell id="9" value="&lt;span style=&quot;font-size: 25px;&quot;&gt;\(a^{(2)}_{2}\)&lt;/span&gt;" style="ellipse;whiteSpace=wrap;html=1;aspect=fixed;" vertex="1" parent="1">
                    <mxGeometry x="519" y="732" width="80" height="80" as="geometry"/>
                </mxCell>
                <mxCell id="11" style="rounded=0;orthogonalLoop=1;jettySize=auto;html=1;entryX=0;entryY=0.5;entryDx=0;entryDy=0;endArrow=none;endFill=0;exitX=1.011;exitY=0.594;exitDx=0;exitDy=0;exitPerimeter=0;startArrow=oval;startFill=0;" edge="1" parent="1" source="2" target="6">
                    <mxGeometry relative="1" as="geometry">
                        <mxPoint x="245.99999999999997" y="555" as="sourcePoint"/>
                        <mxPoint x="367.46" y="595.92" as="targetPoint"/>
                    </mxGeometry>
                </mxCell>
                <mxCell id="12" value="&lt;span style=&quot;font-size: 20px;&quot;&gt;\(w^{(1)}_{12}\)&lt;/span&gt;" style="edgeLabel;html=1;align=center;verticalAlign=middle;resizable=0;points=[];labelBackgroundColor=none;" vertex="1" connectable="0" parent="11">
                    <mxGeometry x="-0.0066" relative="1" as="geometry">
                        <mxPoint x="-30" y="48" as="offset"/>
                    </mxGeometry>
                </mxCell>
                <mxCell id="13" style="rounded=0;orthogonalLoop=1;jettySize=auto;html=1;entryX=0;entryY=0.5;entryDx=0;entryDy=0;endArrow=none;endFill=0;exitX=1.034;exitY=0.609;exitDx=0;exitDy=0;exitPerimeter=0;startArrow=oval;startFill=0;" edge="1" parent="1" source="3" target="6">
                    <mxGeometry relative="1" as="geometry">
                        <mxPoint x="243.99" y="642.76" as="sourcePoint"/>
                        <mxPoint x="309" y="672" as="targetPoint"/>
                    </mxGeometry>
                </mxCell>
                <mxCell id="14" value="&lt;span style=&quot;font-size: 20px;&quot;&gt;\(w^{(1)}_{21}\)&lt;/span&gt;" style="edgeLabel;html=1;align=center;verticalAlign=middle;resizable=0;points=[];labelBackgroundColor=none;" vertex="1" connectable="0" parent="13">
                    <mxGeometry x="-0.0066" relative="1" as="geometry">
                        <mxPoint x="-63" y="-10" as="offset"/>
                    </mxGeometry>
                </mxCell>
                <mxCell id="15" style="rounded=0;orthogonalLoop=1;jettySize=auto;html=1;entryX=0;entryY=0.5;entryDx=0;entryDy=0;endArrow=none;endFill=0;exitX=1.022;exitY=0.538;exitDx=0;exitDy=0;exitPerimeter=0;startArrow=oval;startFill=0;" edge="1" parent="1" source="4" target="6">
                    <mxGeometry relative="1" as="geometry">
                        <mxPoint x="246.02599999999995" y="690.578" as="sourcePoint"/>
                        <mxPoint x="309" y="672" as="targetPoint"/>
                    </mxGeometry>
                </mxCell>
                <mxCell id="16" value="&lt;span style=&quot;font-size: 20px;&quot;&gt;\(w^{(1)}_{1n}\)&lt;/span&gt;" style="edgeLabel;html=1;align=center;verticalAlign=middle;resizable=0;points=[];labelBackgroundColor=none;" vertex="1" connectable="0" parent="15">
                    <mxGeometry x="-0.0066" relative="1" as="geometry">
                        <mxPoint x="-54" y="49" as="offset"/>
                    </mxGeometry>
                </mxCell>
                <mxCell id="17" style="rounded=0;orthogonalLoop=1;jettySize=auto;html=1;entryX=0;entryY=0.5;entryDx=0;entryDy=0;endArrow=none;endFill=0;startArrow=oval;startFill=0;" edge="1" parent="1" target="7">
                    <mxGeometry relative="1" as="geometry">
                        <mxPoint x="235" y="772" as="sourcePoint"/>
                        <mxPoint x="309" y="672" as="targetPoint"/>
                    </mxGeometry>
                </mxCell>
                <mxCell id="18" value="&lt;span style=&quot;font-size: 20px;&quot;&gt;\(w^{(1)}_{2n}\)&lt;/span&gt;" style="edgeLabel;html=1;align=center;verticalAlign=middle;resizable=0;points=[];labelBackgroundColor=none;" vertex="1" connectable="0" parent="17">
                    <mxGeometry x="-0.0066" relative="1" as="geometry">
                        <mxPoint y="23" as="offset"/>
                    </mxGeometry>
                </mxCell>
                <mxCell id="19" style="rounded=0;orthogonalLoop=1;jettySize=auto;html=1;endArrow=none;endFill=0;startArrow=oval;startFill=0;entryX=0;entryY=0.5;entryDx=0;entryDy=0;" edge="1" parent="1" target="7">
                    <mxGeometry relative="1" as="geometry">
                        <mxPoint x="236" y="681" as="sourcePoint"/>
                        <mxPoint x="280" y="736" as="targetPoint"/>
                    </mxGeometry>
                </mxCell>
                <mxCell id="21" style="rounded=0;orthogonalLoop=1;jettySize=auto;html=1;entryX=0;entryY=0.5;entryDx=0;entryDy=0;endArrow=none;endFill=0;startArrow=oval;startFill=0;exitX=1.011;exitY=0.593;exitDx=0;exitDy=0;exitPerimeter=0;" edge="1" parent="1" source="2" target="6">
                    <mxGeometry relative="1" as="geometry">
                        <mxPoint x="246.02600000000007" y="690.578" as="sourcePoint"/>
                        <mxPoint x="309" y="672" as="targetPoint"/>
                    </mxGeometry>
                </mxCell>
                <mxCell id="22" value="&lt;span style=&quot;font-size: 20px;&quot;&gt;\(w^{(1)}_{11}\)&lt;/span&gt;" style="edgeLabel;html=1;align=center;verticalAlign=middle;resizable=0;points=[];labelBackgroundColor=none;" vertex="1" connectable="0" parent="21">
                    <mxGeometry x="-0.0066" relative="1" as="geometry">
                        <mxPoint x="-1" y="-24" as="offset"/>
                    </mxGeometry>
                </mxCell>
                <mxCell id="23" style="rounded=0;orthogonalLoop=1;jettySize=auto;html=1;entryX=0;entryY=0.5;entryDx=0;entryDy=0;endArrow=none;endFill=0;startArrow=none;startFill=0;exitX=1;exitY=0.5;exitDx=0;exitDy=0;" edge="1" parent="1" source="6" target="8">
                    <mxGeometry relative="1" as="geometry">
                        <mxPoint x="279.99" y="642.72" as="sourcePoint"/>
                        <mxPoint x="392.9999999999999" y="642.9999999999998" as="targetPoint"/>
                    </mxGeometry>
                </mxCell>
                <mxCell id="24" value="&lt;font style=&quot;font-size: 20px;&quot;&gt;\(w^{(2)}_{11}\)&lt;/font&gt;" style="edgeLabel;html=1;align=center;verticalAlign=middle;resizable=0;points=[];labelBackgroundColor=none;" vertex="1" connectable="0" parent="23">
                    <mxGeometry x="-0.0066" relative="1" as="geometry">
                        <mxPoint x="-2" y="-17" as="offset"/>
                    </mxGeometry>
                </mxCell>
                <mxCell id="25" style="rounded=0;orthogonalLoop=1;jettySize=auto;html=1;entryX=0;entryY=0.5;entryDx=0;entryDy=0;endArrow=none;endFill=0;startArrow=none;startFill=0;exitX=1;exitY=0.5;exitDx=0;exitDy=0;" edge="1" parent="1" source="7" target="8">
                    <mxGeometry relative="1" as="geometry">
                        <mxPoint x="472.9999999999998" y="642.9999999999998" as="sourcePoint"/>
                        <mxPoint x="529" y="642.9999999999998" as="targetPoint"/>
                    </mxGeometry>
                </mxCell>
                <mxCell id="26" value="&lt;span style=&quot;font-size: 20px;&quot;&gt;\(w^{(2)}_{21}\)&lt;/span&gt;" style="edgeLabel;html=1;align=center;verticalAlign=middle;resizable=0;points=[];labelBackgroundColor=none;" vertex="1" connectable="0" parent="25">
                    <mxGeometry x="-0.0066" relative="1" as="geometry">
                        <mxPoint x="-32" y="-28" as="offset"/>
                    </mxGeometry>
                </mxCell>
                <mxCell id="27" style="rounded=0;orthogonalLoop=1;jettySize=auto;html=1;entryX=0;entryY=0.5;entryDx=0;entryDy=0;endArrow=none;endFill=0;startArrow=none;startFill=0;exitX=1;exitY=0.5;exitDx=0;exitDy=0;" edge="1" parent="1" source="6" target="9">
                    <mxGeometry relative="1" as="geometry">
                        <mxPoint x="504" y="696" as="sourcePoint"/>
                        <mxPoint x="529" y="642.9999999999998" as="targetPoint"/>
                    </mxGeometry>
                </mxCell>
                <mxCell id="28" value="&lt;span style=&quot;font-size: 20px;&quot;&gt;\(w^{(2)}_{12}\)&lt;/span&gt;" style="edgeLabel;html=1;align=center;verticalAlign=middle;resizable=0;points=[];labelBackgroundColor=none;" vertex="1" connectable="0" parent="27">
                    <mxGeometry x="-0.0066" relative="1" as="geometry">
                        <mxPoint x="-30" y="15" as="offset"/>
                    </mxGeometry>
                </mxCell>
                <mxCell id="29" style="rounded=0;orthogonalLoop=1;jettySize=auto;html=1;endArrow=none;endFill=0;startArrow=none;startFill=0;exitX=1;exitY=0.5;exitDx=0;exitDy=0;entryX=0;entryY=0.5;entryDx=0;entryDy=0;" edge="1" parent="1" source="7" target="9">
                    <mxGeometry relative="1" as="geometry">
                        <mxPoint x="502" y="770" as="sourcePoint"/>
                        <mxPoint x="528" y="712" as="targetPoint"/>
                    </mxGeometry>
                </mxCell>
                <mxCell id="30" value="&lt;span style=&quot;font-size: 20px;&quot;&gt;\(w^{(2)}_{22}\)&lt;/span&gt;" style="edgeLabel;html=1;align=center;verticalAlign=middle;resizable=0;points=[];labelBackgroundColor=none;" vertex="1" connectable="0" parent="29">
                    <mxGeometry x="-0.0066" relative="1" as="geometry">
                        <mxPoint x="3" y="12" as="offset"/>
                    </mxGeometry>
                </mxCell>
                <mxCell id="31" style="rounded=0;orthogonalLoop=1;jettySize=auto;html=1;entryX=0;entryY=0.5;entryDx=0;entryDy=0;endArrow=none;endFill=0;startArrow=oval;startFill=0;" edge="1" parent="1" target="7">
                    <mxGeometry relative="1" as="geometry">
                        <mxPoint x="234" y="633" as="sourcePoint"/>
                        <mxPoint x="356.99999999999886" y="643" as="targetPoint"/>
                    </mxGeometry>
                </mxCell>
                <mxCell id="32" value="&lt;span style=&quot;font-size: 20px;&quot;&gt;\(w^{(1)}_{22}\)&lt;/span&gt;" style="edgeLabel;html=1;align=center;verticalAlign=middle;resizable=0;points=[];labelBackgroundColor=none;" vertex="1" connectable="0" parent="31">
                    <mxGeometry x="-0.0066" relative="1" as="geometry">
                        <mxPoint x="-66" y="5" as="offset"/>
                    </mxGeometry>
                </mxCell>
                <mxCell id="33" value="&lt;span style=&quot;font-size: 25px;&quot;&gt;\(a^{(3)}\)&lt;/span&gt;" style="ellipse;whiteSpace=wrap;html=1;aspect=fixed;" vertex="1" parent="1">
                    <mxGeometry x="648" y="660" width="80" height="80" as="geometry"/>
                </mxCell>
                <mxCell id="34" style="rounded=0;orthogonalLoop=1;jettySize=auto;html=1;entryX=0;entryY=0.5;entryDx=0;entryDy=0;endArrow=none;endFill=0;startArrow=none;startFill=0;exitX=1;exitY=0.5;exitDx=0;exitDy=0;" edge="1" parent="1" source="8" target="33">
                    <mxGeometry relative="1" as="geometry">
                        <mxPoint x="473" y="643" as="sourcePoint"/>
                        <mxPoint x="529" y="643" as="targetPoint"/>
                    </mxGeometry>
                </mxCell>
                <mxCell id="35" value="&lt;font style=&quot;font-size: 20px;&quot;&gt;\(w_1\)&lt;/font&gt;" style="edgeLabel;html=1;align=center;verticalAlign=middle;resizable=0;points=[];labelBackgroundColor=none;" vertex="1" connectable="0" parent="34">
                    <mxGeometry x="-0.0066" relative="1" as="geometry">
                        <mxPoint x="-10" y="6" as="offset"/>
                    </mxGeometry>
                </mxCell>
                <mxCell id="36" style="rounded=0;orthogonalLoop=1;jettySize=auto;html=1;entryX=0;entryY=0.5;entryDx=0;entryDy=0;endArrow=none;endFill=0;startArrow=none;startFill=0;exitX=1;exitY=0.5;exitDx=0;exitDy=0;" edge="1" parent="1" source="9" target="33">
                    <mxGeometry relative="1" as="geometry">
                        <mxPoint x="483" y="653" as="sourcePoint"/>
                        <mxPoint x="539" y="653" as="targetPoint"/>
                    </mxGeometry>
                </mxCell>
                <mxCell id="37" value="&lt;font style=&quot;font-size: 20px;&quot;&gt;\(w_1\)&lt;/font&gt;" style="edgeLabel;html=1;align=center;verticalAlign=middle;resizable=0;points=[];labelBackgroundColor=none;" vertex="1" connectable="0" parent="36">
                    <mxGeometry x="-0.0066" relative="1" as="geometry">
                        <mxPoint x="-15" y="-4" as="offset"/>
                    </mxGeometry>
                </mxCell>
                <mxCell id="38" value="&lt;span style=&quot;font-size: 25px; text-wrap: wrap;&quot;&gt;\(y\)&lt;/span&gt;" style="text;html=1;align=center;verticalAlign=middle;resizable=0;points=[];autosize=1;strokeColor=none;fillColor=none;" vertex="1" parent="1">
                    <mxGeometry x="776" y="679" width="61" height="42" as="geometry"/>
                </mxCell>
                <mxCell id="39" style="rounded=0;orthogonalLoop=1;jettySize=auto;html=1;entryX=0.017;entryY=0.5;entryDx=0;entryDy=0;endArrow=classic;endFill=1;entryPerimeter=0;sourcePerimeterSpacing=0;strokeWidth=1;exitX=1;exitY=0.5;exitDx=0;exitDy=0;" edge="1" parent="1" target="38" source="33">
                    <mxGeometry relative="1" as="geometry">
                        <mxPoint x="749" y="649" as="sourcePoint"/>
                        <mxPoint x="813" y="694" as="targetPoint"/>
                    </mxGeometry>
                </mxCell>
            </root>
        </mxGraphModel>
    </diagram>
</mxfile>